<svg width="24.000000" height="24.000000" viewBox="0 0 24 24" fill="none" xmlns="http://www.w3.org/2000/svg" xmlns:xlink="http://www.w3.org/1999/xlink">
	<desc>
			Created with Pixso.
	</desc>
	<defs>
		<clipPath id="clip1_960">
			<rect id="Bookmark check 1" rx="-0.500000" width="23.000000" height="23.000000" transform="translate(0.500000 0.500000)" fill="white" fill-opacity="0"/>
		</clipPath>
	</defs>
	<rect id="Bookmark check 1" rx="-0.500000" width="23.000000" height="23.000000" transform="translate(0.500000 0.500000)" fill="#FFFFFF" fill-opacity="0"/>
	<g clip-path="url(#clip1_960)">
		<path id="Vector" d="M19.22 6.58L19.23 20.11C19.23 20.26 19.19 20.41 19.11 20.54C18.87 20.97 18.33 21.12 17.91 20.88L12.02 17.55L6.08 20.88C5.95 20.96 5.8 21 5.64 21C5.16 21 4.76 20.6 4.76 20.11L4.76 6.41C4.76 3.95 6.59 3 9.04 3L14.95 3C17.47 3 19.22 4.02 19.22 6.58Z" stroke="#B8B8B8" stroke-opacity="1.000000" stroke-width="1.500000" stroke-linejoin="round"/>
		<path id="Vector" d="M8.89 10.59L10.96 12.66L15.1 8.52" stroke="#B8B8B8" stroke-opacity="1.000000" stroke-width="1.500000" stroke-linejoin="round" stroke-linecap="round"/>
	</g>
</svg>
