<svg width="45.000000" height="45.000000" viewBox="0 0 45 45" fill="none" xmlns="http://www.w3.org/2000/svg" xmlns:xlink="http://www.w3.org/1999/xlink">
	<desc>
			Created with Pixso.
	</desc>
	<defs>
		<clipPath id="clip1_1186">
			<rect id="Location 2" rx="-0.500000" width="23.000000" height="23.000000" transform="translate(11.500000 11.500000)" fill="white" fill-opacity="0"/>
		</clipPath>
	</defs>
	<path id="Vector" d="M0 22.49C0 5.62 5.62 0 22.5 0C39.37 0 45 5.62 45 22.49C45 39.37 39.37 45 22.5 45C5.62 45 0 39.37 0 22.49ZM5.98 39.01Q1.5 34.53 1.5 22.49Q1.5 10.46 5.98 5.98Q10.46 1.5 22.5 1.5Q34.53 1.5 39.01 5.98Q43.5 10.46 43.5 22.49Q43.5 34.53 39.01 39.01Q34.53 43.5 22.5 43.5Q10.46 43.5 5.98 39.01Z" fill="#E1E1E1" fill-opacity="1.000000" fill-rule="evenodd"/>
	<rect id="Location 2" rx="-0.500000" width="23.000000" height="23.000000" transform="translate(11.500000 11.500000)" fill="#FFFFFF" fill-opacity="0"/>
	<g clip-path="url(#clip1_1186)">
		<path id="Stroke-1" d="M23 19C21.61 19 20.5 20.11 20.5 21.5C20.5 22.88 21.61 24 23 24C24.38 24 25.5 22.88 25.5 21.5C25.5 20.11 24.38 19 23 19Z" stroke="#10142D" stroke-opacity="1.000000" stroke-width="1.500000" stroke-linejoin="round"/>
		<path id="Stroke-3" d="M15.5 21.56C15.5 17.38 18.85 14 22.99 14C27.14 14 30.5 17.38 30.5 21.56C30.5 26.89 24.19 32 22.99 32C21.8 32 15.5 26.89 15.5 21.56Z" stroke="#10142D" stroke-opacity="1.000000" stroke-width="1.500000" stroke-linejoin="round"/>
	</g>
</svg>
