<svg width="102.000000" height="20.000000" viewBox="0 0 102 20" fill="none" xmlns="http://www.w3.org/2000/svg" xmlns:xlink="http://www.w3.org/1999/xlink">
	<desc>
			Created with Pixso.
	</desc>
	<defs>
		<clipPath id="clip1_1103">
			<rect id="Frame" rx="-0.671533" width="100.656937" height="18.656935" transform="translate(0.671533 0.671533)" fill="white" fill-opacity="0"/>
		</clipPath>
	</defs>
	<rect id="Frame" rx="-0.671533" width="100.656937" height="18.656935" transform="translate(0.671533 0.671533)" fill="#FFFFFF" fill-opacity="0"/>
	<g clip-path="url(#clip1_1103)">
		<path id="Vector" d="M67.28 17.29C68.61 17.32 69.9 16.82 70.87 15.89L72.65 17.82C71.47 19.03 69.85 19.93 67.31 19.93C62.96 19.93 60.15 17.04 60.15 13.12C60.13 12.24 60.29 11.36 60.61 10.55C60.93 9.73 61.4 8.98 62.01 8.35C62.62 7.71 63.34 7.21 64.14 6.86C64.95 6.5 65.81 6.32 66.68 6.3L66.93 6.3C71.24 6.3 73.69 9.6 73.48 14.18L63.26 14.18C63.62 16.08 64.95 17.29 67.28 17.29L67.28 17.29ZM70.39 11.98C70.11 10.21 69.06 8.9 66.94 8.9C66.05 8.85 65.18 9.14 64.5 9.71C63.81 10.28 63.37 11.09 63.26 11.98L70.39 11.98Z" fill="#B8B8B8" fill-opacity="1.000000" fill-rule="nonzero"/>
		<path id="Vector" d="M0.27 17.15L8.12 9.14L0.45 9.14L0.45 6.62L11.76 6.62L11.76 9.19L3.91 17.2L11.87 17.2L11.87 19.72L0.27 19.72L0.27 17.15Z" fill="#B8B8B8" fill-opacity="1.000000" fill-rule="nonzero"/>
		<path id="Vector" d="M20.69 17.29C22.02 17.32 23.32 16.82 24.28 15.89L26.06 17.82C24.89 19.03 23.26 19.93 20.72 19.93C16.37 19.93 13.56 17.04 13.56 13.12C13.55 12.24 13.7 11.37 14.02 10.55C14.34 9.73 14.81 8.98 15.42 8.35C16.03 7.72 16.75 7.21 17.55 6.86C18.35 6.51 19.21 6.32 20.09 6.3L20.33 6.3C24.65 6.3 27.09 9.6 26.88 14.18L16.67 14.18C17.03 16.08 18.36 17.29 20.69 17.29L20.69 17.29ZM23.8 11.98C23.53 10.21 22.47 8.9 20.36 8.9C19.47 8.85 18.59 9.14 17.91 9.71C17.22 10.28 16.78 11.09 16.67 11.98L23.8 11.98Z" fill="#B8B8B8" fill-opacity="1.000000" fill-rule="nonzero"/>
		<path id="Vector" d="M43.83 13.13C43.83 8.94 46.95 6.32 50.38 6.32C51.2 6.31 52.02 6.48 52.77 6.82C53.52 7.16 54.19 7.66 54.72 8.29L54.72 0.56L57.5 0.56L57.5 19.68L54.72 19.68L54.72 17.85C54.2 18.5 53.53 19.03 52.77 19.38C52.02 19.74 51.19 19.93 50.35 19.92C49.49 19.91 48.64 19.74 47.84 19.4C47.04 19.06 46.32 18.57 45.72 17.95C45.11 17.33 44.63 16.6 44.31 15.8C43.99 14.99 43.82 14.13 43.83 13.27C43.83 13.21 43.83 13.16 43.83 13.11L43.83 13.13ZM54.88 13.08C54.86 11.98 54.41 10.92 53.62 10.14C52.83 9.37 51.76 8.94 50.66 8.95C49.56 8.96 48.5 9.4 47.72 10.19C46.94 10.98 46.51 12.04 46.51 13.15C46.51 14.26 46.94 15.32 47.72 16.11C48.5 16.9 49.56 17.34 50.66 17.35C51.76 17.36 52.83 16.93 53.62 16.16C54.41 15.38 54.86 14.33 54.88 13.22L54.88 13.08Z" fill="#B8B8B8" fill-opacity="1.000000" fill-rule="nonzero"/>
		<path id="Vector" d="M75.27 16.9L77.78 15.59C78.12 16.18 78.6 16.68 79.2 17.01C79.79 17.35 80.46 17.52 81.14 17.5C82.71 17.5 83.52 16.69 83.52 15.77C83.52 14.73 82 14.49 80.34 14.15C78.11 13.69 75.79 12.94 75.79 10.25C75.79 8.18 77.75 6.27 80.84 6.29C83.27 6.29 85.08 7.26 86.1 8.83L83.81 10.12C83.48 9.64 83.05 9.25 82.53 8.99C82.02 8.73 81.45 8.6 80.87 8.62C79.38 8.62 78.62 9.36 78.62 10.19C78.62 11.14 79.83 11.4 81.71 11.82C83.86 12.27 86.29 13 86.29 15.72C86.29 17.55 84.72 19.96 81 19.93C78.27 19.93 76.36 18.83 75.27 16.9L75.27 16.9Z" fill="#B8B8B8" fill-opacity="1.000000" fill-rule="nonzero"/>
		<path id="Vector" d="M93.83 13.86L91.63 16.27L91.63 19.68L88.86 19.68L88.86 0.56L91.63 0.56L91.63 13.08L97.52 6.58L100.9 6.58L95.79 12.18L101.03 19.68L97.89 19.68L93.83 13.86Z" fill="#B8B8B8" fill-opacity="1.000000" fill-rule="nonzero"/>
		<path id="Vector" d="M35.44 6.32C32.15 6.32 29.38 8.47 29.38 12.03L29.38 19.68L32.21 19.68L32.21 12.37C32.21 10.22 33.44 8.94 35.54 8.94C37.64 8.94 38.68 10.22 38.68 12.37L38.68 19.68L41.5 19.68L41.5 12.02C41.5 8.46 38.74 6.31 35.44 6.31L35.44 6.32Z" fill="#B8B8B8" fill-opacity="1.000000" fill-rule="nonzero"/>
	</g>
</svg>
