<svg width="24.000000" height="24.000000" viewBox="0 0 24 24" fill="none" xmlns="http://www.w3.org/2000/svg" xmlns:xlink="http://www.w3.org/1999/xlink">
	<desc>
			Created with Pixso.
	</desc>
	<defs>
		<clipPath id="clip1_1155">
			<rect id="mention 1" rx="-0.500000" width="23.000000" height="23.000000" transform="translate(0.500000 0.500000)" fill="white" fill-opacity="0"/>
		</clipPath>
	</defs>
	<rect id="mention 1" rx="-0.500000" width="23.000000" height="23.000000" transform="translate(0.500000 0.500000)" fill="#FFFFFF" fill-opacity="0"/>
	<g clip-path="url(#clip1_1155)">
		<path id="Vector" d="M15.6 8.64L15.6 12.89C15.6 14.39 16.8 15.59 18.29 15.59C19.95 15.59 21 14.23 21 12C21 6.93 16.96 3 11.99 3C7.02 3 3 7.03 3 12C3 16.97 7.03 21 12 21C13.81 21 15.58 20.45 17.07 19.43" stroke="#B8B8B8" stroke-opacity="1.000000" stroke-width="1.500000" stroke-linejoin="round" stroke-linecap="round"/>
		<path id="Vector" d="M15.6 11.99C15.6 13.98 13.98 15.59 12 15.59C10.01 15.59 8.4 13.98 8.4 11.99C8.4 10.01 10.01 8.39 12 8.39C13.98 8.39 15.6 10.01 15.6 11.99Z" stroke="#B8B8B8" stroke-opacity="1.000000" stroke-width="1.500000" stroke-linejoin="round"/>
	</g>
</svg>
