<svg width="24.000000" height="24.000000" viewBox="0 0 24 24" fill="none" xmlns="http://www.w3.org/2000/svg" xmlns:xlink="http://www.w3.org/1999/xlink">
	<desc>
			Created with Pixso.
	</desc>
	<defs>
		<clipPath id="clip1_952">
			<rect id="Play Right 1" rx="-0.500000" width="23.000000" height="23.000000" transform="translate(0.500000 0.500000)" fill="white" fill-opacity="0"/>
		</clipPath>
	</defs>
	<rect id="Play Right 1" rx="-0.500000" width="23.000000" height="23.000000" transform="translate(0.500000 0.500000)" fill="#FFFFFF" fill-opacity="0"/>
	<g clip-path="url(#clip1_952)">
		<path id="Vector" d="M17.77 9.06C15.66 7.15 12.09 4.92 9.44 3.85C8.28 3.47 7.32 3.51 6.57 3.97C5.75 4.47 5.22 5.46 4.98 6.93C4.81 8.47 4.72 10.1 4.73 11.75C4.72 13.41 4.81 15.04 4.98 16.6C5.21 18.04 5.73 19.02 6.54 19.52C6.96 19.78 7.45 19.91 8 19.91C8.44 19.91 8.92 19.83 9.43 19.67C9.45 19.66 9.46 19.66 9.47 19.65C12.1 18.6 15.67 16.36 17.76 14.46C18.76 13.59 19.26 12.68 19.26 11.76C19.26 10.83 18.76 9.92 17.77 9.06Z" fill="#FFFFFF" fill-opacity="1.000000" fill-rule="evenodd"/>
	</g>
</svg>
