<svg width="24" height="24" viewBox="0 0 24 24" fill="none" xmlns="http://www.w3.org/2000/svg">
<path d="M17.8877 10.8967C19.2827 10.7007 20.3567 9.50473 20.3597 8.05573C20.3597 6.62773 19.3187 5.44373 17.9537 5.21973" stroke="#B8B8B8" stroke-width="1.5" stroke-linecap="round" stroke-linejoin="round"/>
<path d="M19.7285 14.2499C21.0795 14.4519 22.0225 14.9249 22.0225 15.8999C22.0225 16.5709 21.5785 17.0069 20.8605 17.2809" stroke="#B8B8B8" stroke-width="1.5" stroke-linecap="round" stroke-linejoin="round"/>
<path fill-rule="evenodd" clip-rule="evenodd" d="M11.8867 14.6638C8.67273 14.6638 5.92773 15.1508 5.92773 17.0958C5.92773 19.0398 8.65573 19.5408 11.8867 19.5408C15.1007 19.5408 17.8447 19.0588 17.8447 17.1128C17.8447 15.1668 15.1177 14.6638 11.8867 14.6638Z" stroke="#B8B8B8" stroke-width="1.5" stroke-linecap="round" stroke-linejoin="round"/>
<path fill-rule="evenodd" clip-rule="evenodd" d="M11.8864 11.8879C13.9954 11.8879 15.7054 10.1789 15.7054 8.06888C15.7054 5.95988 13.9954 4.24988 11.8864 4.24988C9.77744 4.24988 8.06741 5.95988 8.06741 8.06888C8.05944 10.1709 9.75644 11.8809 11.8584 11.8879H11.8864Z" stroke="#B8B8B8" stroke-width="1.5" stroke-linecap="round" stroke-linejoin="round"/>
<path d="M5.88509 10.8967C4.48909 10.7007 3.41609 9.50473 3.41309 8.05573C3.41309 6.62773 4.45409 5.44373 5.81909 5.21973" stroke="#B8B8B8" stroke-width="1.5" stroke-linecap="round" stroke-linejoin="round"/>
<path d="M4.044 14.2499C2.693 14.4519 1.75 14.9249 1.75 15.8999C1.75 16.5709 2.194 17.0069 2.912 17.2809" stroke="#B8B8B8" stroke-width="1.5" stroke-linecap="round" stroke-linejoin="round"/>
</svg>
